HIERARCHY
ROOT joint_Root
{
	OFFSET 0.0 0.0 0.0
	CHANNELS 6 Xposition Yposition Zposition Zrotation Xrotation Yrotation 
	JOINT Hips
	{
		OFFSET -17.1583 93.1646 452.98
		CHANNELS 6 Xposition Yposition Zposition Zrotation Xrotation Yrotation 
		JOINT Spine
		{
			OFFSET 15.7357 0.0 0.0
			CHANNELS 6 Xposition Yposition Zposition Zrotation Xrotation Yrotation 
			JOINT Chest
			{
				OFFSET 8.98455 -0.406207 0.0
				CHANNELS 6 Xposition Yposition Zposition Zrotation Xrotation Yrotation 
				JOINT Neck
				{
					OFFSET 16.3773 0.0 0.0
					CHANNELS 6 Xposition Yposition Zposition Zrotation Xrotation Yrotation 
					JOINT Head
					{
						OFFSET 6.45672 0.0 0.0
						CHANNELS 6 Xposition Yposition Zposition Zrotation Xrotation Yrotation 
						End Site
						{
							OFFSET 0.0 0.0 0.0
						}
					}
				}
				JOINT Shoulder_L
				{
					OFFSET 12.9942 -0.242716 4.98039
					CHANNELS 6 Xposition Yposition Zposition Zrotation Xrotation Yrotation 
					JOINT UpperArm_L
					{
						OFFSET 5.34809 0.0 0.0
						CHANNELS 6 Xposition Yposition Zposition Zrotation Xrotation Yrotation 
						JOINT LowerArm_L
						{
							OFFSET 24.3286 1.87007e-05 0.0
							CHANNELS 6 Xposition Yposition Zposition Zrotation Xrotation Yrotation 
							JOINT Hand_L
							{
								OFFSET 22.2916 0.0 0.0
								CHANNELS 6 Xposition Yposition Zposition Zrotation Xrotation Yrotation 
								End Site
								{
									OFFSET 0.0 0.0 0.0
								}
							}
						}
					}
				}
				JOINT Shoulder_R
				{
					OFFSET 12.9945 -0.242716 -4.98039
					CHANNELS 6 Xposition Yposition Zposition Zrotation Xrotation Yrotation 
					JOINT UpperArm_R
					{
						OFFSET -5.34813 0.0 0.0
						CHANNELS 6 Xposition Yposition Zposition Zrotation Xrotation Yrotation 
						JOINT LowerArm_R
						{
							OFFSET -24.3289 0.000322201 0.0
							CHANNELS 6 Xposition Yposition Zposition Zrotation Xrotation Yrotation 
							JOINT Hand_R
							{
								OFFSET -22.2915 -0.000108084 0.0
								CHANNELS 6 Xposition Yposition Zposition Zrotation Xrotation Yrotation 
								End Site
								{
									OFFSET 0.0 0.0 0.0
								}
							}
						}
					}
				}
			}
		}
		JOINT UpperLeg_L
		{
			OFFSET -2.19248 -6.46944 0.0
			CHANNELS 6 Xposition Yposition Zposition Zrotation Xrotation Yrotation 
			JOINT LowerLeg_L
			{
				OFFSET 39.0811 0.0 -1.23785e-05
				CHANNELS 6 Xposition Yposition Zposition Zrotation Xrotation Yrotation 
				JOINT Foot_L
				{
					OFFSET 40.9854 0.0 -1.26872e-05
					CHANNELS 6 Xposition Yposition Zposition Zrotation Xrotation Yrotation 
					JOINT Toes_L
					{
						OFFSET 11.7543 0.0 0.0
						CHANNELS 6 Xposition Yposition Zposition Zrotation Xrotation Yrotation 
						End Site
						{
							OFFSET 0.0 0.0 0.0
						}
					}
				}
			}
		}
		JOINT UpperLeg_R
		{
			OFFSET -2.19251 6.46944 0.0
			CHANNELS 6 Xposition Yposition Zposition Zrotation Xrotation Yrotation 
			JOINT LowerLeg_R
			{
				OFFSET -39.0811 -0.00228153 -0.0401928
				CHANNELS 6 Xposition Yposition Zposition Zrotation Xrotation Yrotation 
				JOINT Foot_R
				{
					OFFSET -40.9854 0.0 0.0
					CHANNELS 6 Xposition Yposition Zposition Zrotation Xrotation Yrotation 
					JOINT Toes_R
					{
						OFFSET -11.7543 0.0 0.0
						CHANNELS 6 Xposition Yposition Zposition Zrotation Xrotation Yrotation 
						End Site
						{
							OFFSET 0.0 0.0 0.0
						}
					}
				}
			}
		}
	}
}
MOTION
Frames:	9
Frame Time:	0.0333333
0.000000 0.000000 0.000000 0.000000 0.000000 -0.000000 193.706000 89.569900 -154.641000 94.681000 -5.108970 -3.953470 15.735700 0.000005 -0.000001 106.451000 87.799000 -107.408000 8.984550 -0.406207 -0.000000 -3.532890 1.340280 -1.874090 16.377300 -0.000001 -0.000001 0.568298 3.814310 -0.961989 6.456720 -0.000001 -0.000000 6.430250 4.495280 -3.736090 12.994200 -0.242716 4.980390 -92.954100 8.230310 -70.176700 5.348090 -0.000007 -0.000001 -72.320700 -11.681700 7.071400 24.328600 0.000019 0.000005 23.158000 24.981500 -45.362600 22.291600 -0.000001 0.000005 57.329100 4.402510 18.183200 12.994500 -0.242716 -4.980390 88.951100 3.407820 -72.880300 -5.348130 -0.000001 -0.000004 -73.909000 4.840990 1.789120 -24.328900 0.000322 -0.000009 0.831849 5.066350 -9.347790 -22.291500 -0.000108 -0.000004 42.243600 5.385630 -2.477330 -2.192480 -6.469440 -0.000000 171.976000 -2.780620 -23.764000 39.081100 -0.000007 -0.000012 0.117602 -0.153134 37.522800 40.985400 -0.000006 -0.000013 0.191890 6.016380 -73.834800 11.754300 -0.000000 0.000003 -0.000619 0.177458 -9.378640 -2.192510 6.469440 -0.000001 173.446000 4.202320 169.724000 -39.081100 -0.002282 -0.040193 0.243150 -0.144242 58.987900 -40.985400 0.000008 0.000006 -0.592906 -11.275200 -27.780000 -11.754300 -0.000006 -0.000006 -0.000045 0.168424 -9.742100
0.000000 0.000000 0.000000 0.000000 0.000000 -0.000000 193.928000 90.106600 -151.470000 94.848400 -5.818910 -2.248170 15.735700 0.000005 -0.000001 93.370700 87.262100 -94.300700 8.984550 -0.406207 -0.000000 -2.295700 0.403484 -1.851660 16.377300 -0.000001 -0.000001 1.069990 4.481620 -1.559200 6.456720 -0.000001 -0.000000 6.583610 5.527020 -4.011200 12.994200 -0.242716 4.980390 -93.004000 8.356080 -70.145000 5.348090 -0.000007 -0.000001 -70.964100 -11.309800 5.063980 24.328600 0.000019 0.000005 30.075300 25.072900 -53.803800 22.291600 -0.000001 0.000005 57.072500 4.408280 18.091200 12.994500 -0.242716 -4.980390 89.109600 2.876800 -72.793200 -5.348130 -0.000001 -0.000004 -72.072800 1.182590 4.276240 -24.328900 0.000322 -0.000009 0.683531 5.062790 -7.711190 -22.291500 -0.000108 -0.000004 42.913600 5.347030 -1.288830 -2.192480 -6.469440 -0.000000 171.786000 -3.336800 -18.325500 39.081100 -0.000007 -0.000012 0.047887 -0.069256 34.661200 40.985400 -0.000006 -0.000013 -0.694644 5.859200 -74.317100 11.754300 -0.000000 0.000003 -0.000615 0.177404 -9.380800 -2.192510 6.469440 -0.000001 173.694000 1.357420 164.836000 -39.081100 -0.002282 -0.040193 0.149747 -0.064290 66.319700 -40.985400 0.000008 0.000006 -1.175500 -6.874080 -35.530200 -11.754300 -0.000006 -0.000006 -0.000167 0.170439 -9.660270
0.000000 0.000000 0.000000 0.000000 0.000000 -0.000000 193.901000 90.855900 -148.449000 94.164900 -6.227880 -0.967693 15.735700 0.000005 -0.000001 85.454800 86.739000 -85.997300 8.984550 -0.406207 -0.000000 -1.266570 -0.473976 -1.089880 16.377300 -0.000001 -0.000001 1.614480 4.949610 -2.077150 6.456720 -0.000001 -0.000000 6.981770 6.371540 -4.780900 12.994200 -0.242716 4.980390 -93.011600 8.372600 -70.134600 5.348090 -0.000007 -0.000001 -69.318800 -11.315600 2.671140 24.328600 0.000019 0.000005 32.810900 22.467600 -59.342700 22.291600 -0.000001 0.000005 56.465500 4.381840 18.511700 12.994500 -0.242716 -4.980390 89.340300 2.125460 -72.752100 -5.348130 -0.000001 -0.000004 -69.855900 -0.525165 6.435140 -24.328900 0.000322 -0.000009 0.618966 5.601750 -6.326200 -22.291500 -0.000108 -0.000004 43.366200 5.326650 -0.688523 -2.192480 -6.469440 -0.000000 172.694000 -3.728050 -12.684000 39.081100 -0.000007 -0.000012 -0.018717 0.031838 30.450600 40.985400 -0.000006 -0.000013 -1.962680 6.014660 -73.748100 11.754300 -0.000000 0.000003 -0.000278 0.172184 -9.592870 -2.192510 6.469440 -0.000001 175.168000 -1.691850 160.412000 -39.081100 -0.002282 -0.040193 0.061967 -0.021716 69.745600 -40.985400 0.000008 0.000006 -1.571720 -6.614160 -42.779400 -11.754300 -0.000006 -0.000006 -0.000589 0.177061 -9.391280
0.000000 0.000000 0.000000 0.000000 0.000000 -0.000000 193.650000 91.748100 -145.607000 92.880600 -6.163350 -0.323526 15.735700 0.000005 -0.000001 80.845700 86.396600 -80.806300 8.984550 -0.406207 -0.000000 -0.650513 -1.149210 0.072241 16.377300 -0.000001 -0.000001 2.252920 5.121590 -2.411760 6.456720 -0.000001 -0.000000 7.412580 6.803040 -5.421790 12.994200 -0.242716 4.980390 -92.878700 8.031050 -70.204900 5.348090 -0.000007 -0.000001 -68.188800 -11.602800 -0.186818 24.328600 0.000019 0.000005 32.606700 19.492100 -62.452500 22.291600 -0.000001 0.000005 56.001600 4.391940 18.351500 12.994500 -0.242716 -4.980390 89.622200 1.210690 -72.666600 -5.348130 -0.000001 -0.000004 -67.802400 -1.378850 8.687170 -24.328900 0.000322 -0.000009 0.520144 5.778840 -5.162290 -22.291500 -0.000108 -0.000004 43.690100 5.321520 -0.539619 -2.192480 -6.469440 -0.000000 174.154000 -3.160660 -7.381300 39.081100 -0.000007 -0.000012 -0.017587 0.036909 25.477300 40.985400 -0.000006 -0.000013 -2.382330 5.638270 -72.442500 11.754300 -0.000000 0.000003 0.000160 0.164887 -9.889210 -2.192510 6.469440 -0.000001 177.188000 -4.083690 156.600000 -39.081100 -0.002282 -0.040193 0.018006 -0.005561 69.515000 -40.985400 0.000008 0.000006 -3.297760 -10.292600 -50.900900 -11.754300 -0.000006 -0.000006 -0.001149 0.185165 -9.061960
0.000000 0.000000 0.000000 0.000000 0.000000 -0.000000 193.327000 92.585200 -142.987000 91.472000 -5.657730 -0.345953 15.735700 0.000005 -0.000001 77.225000 86.277700 -76.583000 8.984550 -0.406207 -0.000000 -0.495862 -1.692070 1.276130 16.377300 -0.000001 -0.000001 2.787460 4.976480 -2.402640 6.456720 -0.000001 -0.000000 7.825990 6.935310 -5.868640 12.994200 -0.242716 4.980390 -92.737900 7.744170 -70.460600 5.348090 -0.000007 -0.000001 -67.517700 -12.264500 -3.150680 24.328600 0.000019 0.000005 32.222400 17.227800 -64.831000 22.291600 -0.000001 0.000005 56.466400 4.373160 18.649100 12.994500 -0.242716 -4.980390 89.920400 0.254550 -72.630800 -5.348130 -0.000001 -0.000004 -66.095800 -2.018570 11.124700 -24.328900 0.000322 -0.000009 0.442409 5.918940 -4.292270 -22.291500 -0.000108 -0.000004 43.739600 5.293680 0.248774 -2.192480 -6.469440 -0.000000 175.701000 -2.411760 -2.969410 39.081100 -0.000007 -0.000012 -0.012370 0.033265 20.398000 40.985400 -0.000006 -0.000013 -2.935390 5.241950 -70.187400 11.754300 -0.000000 0.000003 0.000914 0.150481 -10.474000 -2.192510 6.469440 -0.000001 179.066000 -5.803660 153.572000 -39.081100 -0.002282 -0.040193 -0.009993 0.006070 65.233200 -40.985400 0.000008 0.000006 -4.799160 -13.465900 -57.713900 -11.754300 -0.000006 -0.000006 -0.001615 0.191462 -8.805990
0.000000 0.000000 0.000000 0.000000 0.000000 -0.000000 193.002000 93.273800 -140.519000 90.295400 -4.671820 -0.767616 15.735700 0.000005 -0.000001 73.542700 86.258200 -72.422600 8.984550 -0.406207 -0.000000 -0.566398 -2.201060 2.228300 16.377300 -0.000001 -0.000001 2.992040 4.627670 -2.164890 6.456720 -0.000001 -0.000000 8.036310 6.831940 -5.905060 12.994200 -0.242716 4.980390 -92.647200 7.616980 -70.770800 5.348090 -0.000007 -0.000001 -67.307000 -12.675400 -6.045830 24.328600 0.000019 0.000005 31.617200 15.344500 -66.739700 22.291600 -0.000001 0.000005 56.967900 4.340500 19.162600 12.994500 -0.242716 -4.980390 90.122000 -0.390308 -72.644400 -5.348130 -0.000001 -0.000004 -64.594000 -2.902740 13.757700 -24.328900 0.000322 -0.000009 0.369123 5.475240 -3.873600 -22.291500 -0.000108 -0.000004 44.162600 5.280600 0.609644 -2.192480 -6.469440 -0.000000 177.305000 -3.492220 0.765410 39.081100 -0.000007 -0.000012 -0.007594 0.027493 15.441000 40.985400 -0.000006 -0.000013 -3.248650 6.822980 -67.443900 11.754300 -0.000000 0.000003 0.001817 0.127334 -11.413100 -2.192510 6.469440 -0.000001 -179.622000 -6.684390 151.615000 -39.081100 -0.002282 -0.040193 -0.013092 0.010532 57.146300 -40.985400 0.000008 0.000006 -5.565410 -15.376200 -61.185100 -11.754300 -0.000006 -0.000006 -0.002424 0.201573 -8.394760
0.000000 0.000000 0.000000 0.000000 0.000000 -0.000000 192.725000 93.672300 -138.087000 89.649300 -3.379570 -1.249580 15.735700 0.000005 -0.000001 69.698200 86.222700 -68.301900 8.984550 -0.406207 -0.000000 -0.645745 -2.723120 2.776270 16.377300 -0.000001 -0.000001 2.822010 4.263970 -1.883410 6.456720 -0.000001 -0.000000 8.024790 6.633310 -5.569670 12.994200 -0.242716 4.980390 -92.502600 7.349710 -71.136800 5.348090 -0.000007 -0.000001 -67.877100 -12.675600 -8.505440 24.328600 0.000019 0.000005 30.449800 13.628800 -68.157800 22.291600 -0.000001 0.000005 57.305800 4.337440 19.210400 12.994500 -0.242716 -4.980390 90.288400 -0.924957 -72.679600 -5.348130 -0.000001 -0.000004 -63.447500 -4.431990 16.249600 -24.328900 0.000322 -0.000009 0.332010 5.149040 -3.705830 -22.291500 -0.000108 -0.000004 44.758400 5.273930 0.791557 -2.192480 -6.469440 -0.000000 178.697000 -5.890970 4.019430 39.081100 -0.000007 -0.000012 -0.004578 0.023225 11.149800 40.985400 -0.000006 -0.000013 -3.226500 10.104000 -64.763200 11.754300 -0.000000 0.000003 0.002320 0.105554 -12.296300 -2.192510 6.469440 -0.000001 -179.001000 -6.345660 151.111000 -39.081100 -0.002282 -0.040193 0.001925 0.001296 45.884400 -40.985400 0.000008 0.000006 -5.943240 -16.044900 -61.881600 -11.754300 -0.000006 -0.000006 -0.003018 0.208478 -8.113830
0.000000 0.000000 0.000000 0.000000 0.000000 -0.000000 192.534000 93.675300 -135.638000 89.459600 -1.849160 -1.821730 15.735700 0.000005 -0.000001 64.805300 86.140600 -63.285700 8.984550 -0.406207 -0.000000 -0.734407 -3.397880 3.016600 16.377300 -0.000001 -0.000001 2.339010 3.963580 -1.582620 6.456720 -0.000001 -0.000000 7.738120 6.459030 -5.254310 12.994200 -0.242716 4.980390 -92.341200 6.993610 -71.438600 5.348090 -0.000007 -0.000001 -68.872700 -12.095800 -10.337700 24.328600 0.000019 0.000005 30.461700 12.860800 -69.270900 22.291600 -0.000001 0.000005 57.335700 4.334150 19.261800 12.994500 -0.242716 -4.980390 90.401000 -1.287340 -72.698200 -5.348130 -0.000001 -0.000004 -62.495000 -6.081390 18.217800 -24.328900 0.000322 -0.000009 0.313279 5.118270 -3.518870 -22.291500 -0.000108 -0.000004 45.178700 5.263680 1.068360 -2.192480 -6.469440 -0.000000 179.409000 -6.683780 6.027340 39.081100 -0.000007 -0.000012 -0.002383 0.014825 9.128800 40.985400 -0.000006 -0.000013 -2.764930 12.071300 -63.796600 11.754300 -0.000000 0.000003 0.002483 0.087248 -13.038500 -2.192510 6.469440 -0.000001 -178.750000 -4.397970 151.817000 -39.081100 -0.002282 -0.040193 0.023324 -0.031298 32.614700 -40.985400 0.000008 0.000006 -6.762630 -13.773600 -60.827900 -11.754300 -0.000006 -0.000006 -0.003359 0.212264 -7.959740
0.000000 0.000000 0.000000 0.000000 0.000000 -0.000000 192.374000 93.315700 -133.035000 89.609900 0.125168 -2.004090 15.735700 0.000005 -0.000001 60.053000 85.842800 -58.492700 8.984550 -0.406207 -0.000000 -0.500870 -4.262200 3.101350 16.377300 -0.000001 -0.000001 1.684130 3.644800 -1.437880 6.456720 -0.000001 -0.000000 7.048730 6.289890 -5.045530 12.994200 -0.242716 4.980390 -92.268200 6.897620 -71.746900 5.348090 -0.000007 -0.000001 -69.793800 -10.696100 -11.649900 24.328600 0.000019 0.000005 30.997700 12.854000 -69.681300 22.291600 -0.000001 0.000005 57.233100 4.335630 19.238600 12.994500 -0.242716 -4.980390 90.426500 -1.357780 -72.559800 -5.348130 -0.000001 -0.000004 -61.579000 -7.919760 19.548700 -24.328900 0.000322 -0.000009 0.330835 5.677030 -3.351140 -22.291500 -0.000108 -0.000004 45.594100 5.253600 1.337380 -2.192480 -6.469440 -0.000000 179.707000 -5.825510 7.229750 39.081100 -0.000007 -0.000012 -0.001460 0.008545 9.690350 40.985400 -0.000006 -0.000013 -2.249910 12.875100 -64.742300 11.754300 -0.000000 0.000003 0.002436 0.071753 -13.666600 -2.192510 6.469440 -0.000001 -178.260000 -0.676058 154.006000 -39.081100 -0.002282 -0.040193 0.033666 -0.088173 18.990000 -40.985400 0.000008 0.000006 -8.242630 -8.880650 -60.828000 -11.754300 -0.000006 -0.000006 -0.003603 0.214913 -7.851900
